<?xml version="1.0" encoding="UTF-8"?>
<svg width="300px" height="300px" viewBox="0 0 300 300" version="1.1" xmlns="http://www.w3.org/2000/svg" xmlns:xlink="http://www.w3.org/1999/xlink">
    <!-- Generator: Sketch 47.1 (45422) - http://www.bohemiancoding.com/sketch -->
    <title>Untitled</title>
    <desc>Created with Sketch.</desc>
    <defs>
        <linearGradient x1="-53.1888021%" y1="-50.7916667%" x2="122.673177%" y2="122.125%" id="linearGradient-1">
            <stop stop-color="#3023AE" offset="0%"></stop>
            <stop stop-color="#3123AE" offset="0.22063941%"></stop>
            <stop stop-color="#3324AE" offset="1.4741378%"></stop>
            <stop stop-color="#C86DD7" offset="100%"></stop>
        </linearGradient>
    </defs>
    <g id="Page-1" stroke="none" stroke-width="1" fill="none" fill-rule="evenodd">
        <g id="Group">
            <circle id="Oval" fill="url(#linearGradient-1)" cx="150" cy="150" r="150"></circle>
            <path d="M150.203947,100.565701 L116.585613,100.565701 L141.608968,75.6511426 C144.368702,72.8914084 145.446501,68.8690083 144.436368,65.0991414 C143.426236,61.3292744 140.481634,58.3846732 136.711767,57.3745404 C132.9419,56.3644076 128.9195,57.4422064 126.159766,60.2019406 L82.6408872,103.720819 C78.4225632,107.964318 78.4225632,114.817726 82.6408872,119.061224 L126.159766,162.580103 C130.395902,166.846283 137.28839,166.870638 141.55457,162.634502 C145.820749,158.398366 145.845104,151.505878 141.608968,147.239698 L116.585613,122.32514 L150.203947,122.32514 C177.243111,122.325141 199.162685,144.244714 199.162685,171.283879 C199.162685,198.323044 177.243111,220.242617 150.203947,220.242618 C144.195243,220.242618 139.324227,225.113634 139.324227,231.122338 C139.324227,237.131041 144.195243,242.002057 150.203947,242.002057 C189.260518,242.002057 220.922125,210.34045 220.922125,171.283879 C220.922125,132.227308 189.260518,100.565701 150.203947,100.565701 Z" id="Shape" fill="#FFFFFF" fill-rule="nonzero"></path>
        </g>
    </g>
</svg>